<svg width="32" height="32" viewBox="0 0 32 32" fill="none" xmlns="http://www.w3.org/2000/svg">
  <rect width="32" height="32" rx="8" fill="url(#gradient)"/>
  <circle cx="16" cy="16" r="10" fill="white"/>
  <path d="M16 8l3 6-3 2-3-2 3-6z" fill="#16A34A"/>
  <path d="M10 16l6 3-2 3-6-3 2-3z" fill="#16A34A"/>
  <path d="M22 16l-6 3 2 3 6-3-2-3z" fill="#16A34A"/>
  <path d="M16 24l-3-6 3-2 3 2-3 6z" fill="#16A34A"/>
  <path d="M10 16l6-3 2 3-6 3-2-3z" fill="#16A34A"/>
  <path d="M22 16l-6-3-2 3 6 3 2-3z" fill="#16A34A"/>
  <defs>
    <linearGradient id="gradient" x1="0" y1="0" x2="32" y2="32" gradientUnits="userSpaceOnUse">
      <stop stop-color="#16A34A"/>
      <stop offset="1" stop-color="#2563EB"/>
    </linearGradient>
  </defs>
</svg>